<svg xmlns="http://www.w3.org/2000/svg" version="1.1" xmlns:xlink="http://www.w3.org/1999/xlink" width="512" height="512"><svg xmlns="http://www.w3.org/2000/svg" version="1.1" xmlns:xlink="http://www.w3.org/1999/xlink" width="512" height="512"><svg xmlns="http://www.w3.org/2000/svg" width="512" height="512" viewBox="0 0 512 512">
  <defs>
    <linearGradient id="bg" x1="0" y1="0" x2="1" y2="1">
      <stop offset="0%" stop-color="#ffc3a0"></stop>
      <stop offset="50%" stop-color="#ffafbd"></stop>
      <stop offset="100%" stop-color="#c3aed6"></stop>
    </linearGradient>
  </defs>
  <rect width="512" height="512" rx="96" fill="url(#bg)"></rect>
  <path d="M360 150a80 80 0 0 0-114 0l-18 18-18-18a80 80 0 1 0-114 114l18 18 132 132 132-132 18-18a80 80 0 0 0 0-114z" fill="#fff"></path>
  <circle cx="214" cy="224" r="16" fill="#ffafbd" opacity="0.9"></circle>
  <circle cx="298" cy="224" r="16" fill="#ffafbd" opacity="0.9"></circle>
  <path d="M210 268c16 22 34 32 46 32s30-10 46-32" fill="none" stroke="#ffafbd" stroke-width="20" stroke-linecap="round" stroke-linejoin="round"></path>
</svg></svg><style>@media (prefers-color-scheme: light) { :root { filter: none; } }
@media (prefers-color-scheme: dark) { :root { filter: none; } }
</style></svg>